#!OML:ASF G:\JayActor3\Patient Classification 1\Patient 1\Session 2\male.ASF
:FULLY-SPECIFIED
:DEGREES
3527
root 13.8339 16.801 -5.64312 3903.48 -88.4611 -1020.88
lowerback -0.352966 -0.773195 -3.22428
upperback 6.05281 -1.00217 -0.796054
thorax 6.53054 -0.703872 0.90705
lowerneck -10.4512 -2.64146 -2.34731
upperneck 16.3826 -4.46655 6.03904
head 6.91363 -1.85763 1.92049
rclavicle -1.08338e-014 -1.07344e-014
rhumerus -26.7948 -6.80601 -85.0761
rradius 24.6068
rwrist -0.903833
rhand -21.1521 6.04028
rfingers 7.12502
rthumb 5.22751 -23.8752
lclavicle -1.08338e-014 -1.07344e-014
lhumerus -12.8202 -0.945228 92.5525
lradius 23.1019
lwrist 5.27753
lhand -18.4045 16.7358
lfingers 7.12502
lthumb 7.87991 46.5689
rfemur -32.3712 3.99481 18.8571
rtibia 28.466
rfoot -16.1006 -9.57336
rtoes 9.2325
lfemur 16.8706 3.89423 -25.3388
ltibia 6.04305e-014
lfoot -8.22675 7.00596
ltoes -13.6056
3528
root 13.7413 16.8006 -5.65916 3909.63 -88.2533 -1027.03
lowerback -0.335777 -0.773384 -3.16313
upperback 6.04591 -1.0062 -0.768397
thorax 6.51243 -0.702726 0.90194
lowerneck -10.4709 -2.5891 -2.27652
upperneck 16.3726 -4.39472 5.98303
head 6.90787 -1.8227 1.89722
rclavicle 4.47266e-015 -1.19271e-015
rhumerus -26.9303 -7.3377 -84.7833
rradius 24.0672
rwrist -0.359059
rhand -21.1492 5.99722
rfingers 7.12502
rthumb 5.23032 -23.9182
lclavicle 4.47266e-015 -1.19271e-015
lhumerus -13.2829 -0.463734 92.5017
lradius 22.8491
lwrist 5.00315
lhand -18.4975 16.6885
lfingers 7.12502
lthumb 7.79015 46.525
rfemur -32.2385 3.70989 18.8794
rtibia 28.8591
rfoot -15.9331 -10.0663
rtoes 9.59532
lfemur 17.194 3.80857 -25.2821
ltibia -3.18055e-014
lfoot -8.04924 6.89597
ltoes -14.0951
3529
root 13.6484 16.8027 -5.67507 3914.32 -88.0633 -1031.74
lowerback -0.304047 -0.772221 -3.07299
upperback 6.04236 -1.01052 -0.734914
thorax 6.48891 -0.700422 0.886876
lowerneck -10.5004 -2.52475 -2.19667
upperneck 16.3745 -4.30643 5.91385
head 6.90651 -1.78008 1.86965
rclavicle -1.80397e-014 8.74653e-015
rhumerus -27.0398 -7.87062 -84.4882
rradius 23.5088
rwrist 0.213497
rhand -21.1269 5.90759
rfingers 7.12502
rthumb 5.25178 -24.0073
lclavicle -1.80397e-014 8.74653e-015
lhumerus -13.7932 0.0279986 92.4215
lradius 22.675
lwrist 4.7998
lhand -18.5643 16.6673
lfingers 7.12502
lthumb 7.72573 46.5062
rfemur -32.1106 3.43288 18.9209
rtibia 29.2332
rfoot -15.7719 -10.5366
rtoes 10.028
lfemur 17.5221 3.74813 -25.2007
ltibia -5.08889e-014
lfoot -7.82824 6.80058
ltoes -14.6187
3530
root 13.5551 16.8068 -5.69065 3918.1 -87.9021 -1035.54
lowerback -0.25954 -0.767154 -2.94911
upperback 6.04429 -1.01185 -0.694379
thorax 6.46307 -0.695205 0.860609
lowerneck -10.5548 -2.45097 -2.10331
upperneck 16.3963 -4.20498 5.82455
head 6.91485 -1.73121 1.83437
rclavicle 3.57812e-015 -2.40529e-014
rhumerus -27.1201 -8.41435 -84.1861
rradius 22.9425
rwrist 0.82875
rhand -21.0971 5.8184
rfingers 7.12502
rthumb 5.28056 -24.0958
lclavicle 3.57812e-015 -2.40529e-014
lhumerus -14.3447 0.524977 92.3154
lradius 22.5818
lwrist 4.66927
lhand -18.5694 16.7162
lfingers 7.12502
lthumb 7.72078 46.5552
rfemur -31.9755 3.16066 18.9873
rtibia 29.5792
rfoot -15.6151 -10.9369
rtoes 10.5034
lfemur 17.8542 3.71789 -25.0931
ltibia 9.85972e-014
lfoot -7.56274 6.728
ltoes -15.15
3531
root 13.4615 16.8123 -5.70613 3921.23 -87.7738 -1038.68
lowerback -0.213409 -0.758447 -2.79871
upperback 6.04539 -1.00954 -0.64725
thorax 6.43481 -0.686939 0.826641
lowerneck -10.6077 -2.36473 -1.99818
upperneck 16.4235 -4.08716 5.7244
head 6.9237 -1.67471 1.7952
rclavicle 1.13804e-014 1.98785e-015
rhumerus -27.1854 -8.95728 -83.881
rradius 22.3811
rwrist 1.46488
rhand -21.0581 5.75664
rfingers 7.12502
rthumb 5.31828 -24.1566
lclavicle 1.13804e-014 1.98785e-015
lhumerus -14.9405 1.02729 92.1837
lradius 22.5542
lwrist 4.60041
lhand -18.5524 16.8196
lfingers 7.12502
lthumb 7.73718 46.658
rfemur -31.8307 2.88756 19.0825
rtibia 29.898
rfoot -15.453 -11.243
rtoes 10.9745
lfemur 18.1814 3.72035 -24.9616
ltibia 1.59028e-014
lfoot -7.25459 6.67596
ltoes -15.6382
